<?xml version="1.0" standalone="no"?>
<!DOCTYPE svg PUBLIC "-//W3C//DTD SVG 20010904//EN"
 "http://www.w3.org/TR/2001/REC-SVG-20010904/DTD/svg10.dtd">
<svg version="1.0" xmlns="http://www.w3.org/2000/svg"
 width="500.000000pt" height="135.000000pt" viewBox="0 0 500.000000 135.000000"
 preserveAspectRatio="xMidYMid meet">

<g transform="translate(0.000000,135.000000) scale(0.100000,-0.100000)"
fill="#000000" stroke="none">
<path d="M0 674 c0 -638 1 -675 18 -670 9 2 56 10 104 16 l88 12 2 362 3 361
119 -343 c65 -188 122 -344 125 -346 3 -1 53 2 111 8 l105 11 3 633 2 632
-100 0 -100 0 0 -375 c0 -206 -3 -375 -7 -375 -5 0 -31 67 -60 148 -28 81 -88
249 -134 375 l-82 227 -98 0 -99 0 0 -676z"/>
<path d="M890 730 c0 -585 1 -620 18 -620 9 0 103 7 207 15 105 8 227 17 273
21 l82 6 0 100 0 101 -122 -7 c-68 -3 -151 -9 -185 -13 l-63 -6 0 162 0 161
140 0 140 0 0 100 0 100 -140 0 -140 0 0 145 0 145 185 0 185 0 0 105 0 105
-290 0 -290 0 0 -620z"/>
<path d="M1610 1245 l0 -105 110 0 110 0 0 -485 0 -486 103 3 102 3 3 483 2
482 110 0 110 0 0 105 0 105 -325 0 -325 0 0 -105z"/>
<path d="M2400 765 l0 -585 100 0 100 0 0 240 0 240 145 0 145 0 0 100 0 99
-142 3 -143 3 -3 138 -3 137 191 0 190 0 0 105 0 105 -290 0 -290 0 0 -585z"/>
<path d="M3120 760 c0 -555 1 -590 18 -590 37 0 401 -20 475 -26 l78 -6 -3
103 -3 104 -170 8 c-93 5 -176 10 -182 12 -10 4 -13 111 -13 495 l0 490 -100
0 -100 0 0 -590z"/>
<path d="M3860 741 l0 -610 43 -5 c23 -3 70 -8 105 -11 l62 -6 0 621 0 620
-105 0 -105 0 0 -609z"/>
<path d="M4260 1341 c0 -5 52 -144 116 -308 64 -164 116 -307 116 -318 0 -11
-57 -150 -126 -309 -69 -159 -126 -295 -126 -301 0 -9 29 -15 88 -19 48 -4 94
-9 103 -12 13 -4 33 34 94 177 72 167 79 179 90 158 7 -13 42 -103 79 -199
l67 -176 117 -15 c64 -9 117 -16 118 -15 1 1 -59 156 -132 346 -74 189 -134
351 -134 360 0 9 60 156 134 328 l134 313 -115 -3 -115 -3 -60 -140 c-33 -77
-66 -156 -74 -175 -19 -43 -15 -50 -94 158 l-63 162 -108 0 c-60 0 -109 -4
-109 -9z"/>
</g>
</svg>
